<svg width="31" height="36" viewBox="0 0 31 36" fill="none" xmlns="http://www.w3.org/2000/svg">
<path d="M9.35536 1.24383C9.72902 0.4815 10.4971 0 11.3344 0H19.6656C20.5029 0 21.271 0.4815 21.6446 1.24383L22.1429 2.25H28.7857C30.0105 2.25 31 3.25758 31 4.5C31 5.74242 30.0105 6.75 28.7857 6.75H2.21429C0.991585 6.75 0 5.74242 0 4.5C0 3.25758 0.991585 2.25 2.21429 2.25H8.85714L9.35536 1.24383ZM2.15201 9H28.7857V31.5C28.7857 33.982 26.7998 36 24.3571 36H6.58058C4.19676 36 2.15201 33.982 2.15201 31.5V9ZM7.68772 14.625V30.375C7.68772 30.9937 8.24821 31.5 8.79487 31.5C9.46607 31.5 9.90201 30.9937 9.90201 30.375V14.625C9.90201 14.0063 9.46607 13.5 8.79487 13.5C8.24821 13.5 7.68772 14.0063 7.68772 14.625ZM14.3306 14.625V30.375C14.3306 30.9937 14.8911 31.5 15.4377 31.5C16.1089 31.5 16.6071 30.9937 16.6071 30.375V14.625C16.6071 14.0063 16.1089 13.5 15.4377 13.5C14.8911 13.5 14.3306 14.0063 14.3306 14.625ZM21.0357 14.625V30.375C21.0357 30.9937 21.5339 31.5 22.1429 31.5C22.7518 31.5 23.25 30.9937 23.25 30.375V14.625C23.25 14.0063 22.7518 13.5 22.1429 13.5C21.5339 13.5 21.0357 14.0063 21.0357 14.625Z" fill="white"/>
</svg>
